<svg width="37" height="37" viewBox="0 0 37 37" fill="none" xmlns="http://www.w3.org/2000/svg">
<circle cx="18.5" cy="18.5" r="17.5" stroke="#F9F4EC" stroke-width="2"/>
<path d="M20.6562 10.4689L20.6563 10.4689C21.3365 10.4686 21.9992 10.6839 22.5494 11.0838C23.0996 11.4837 23.5089 12.0477 23.7185 12.6948C23.9281 13.3419 23.9271 14.0387 23.7159 14.6853C23.5046 15.3318 23.0939 15.8947 22.5427 16.2932L22.5793 16.3439L22.5427 16.3945C22.8898 16.6454 23.1832 16.9631 23.4059 17.3288C23.6286 17.6946 23.776 18.1012 23.8395 18.5247C23.9029 18.9482 23.8812 19.3801 23.7756 19.7951C23.6699 20.2101 23.4825 20.5998 23.2242 20.9414C22.9659 21.283 22.6421 21.5696 22.2716 21.7844C21.9011 21.9991 21.4915 22.1378 21.0667 22.1921C20.6419 22.2465 20.2106 22.2155 19.798 22.101C19.3853 21.9864 18.9997 21.7907 18.6638 21.5251L18.5625 21.4451V21.5742V24.3126V24.3126C18.5626 24.8634 18.4214 25.4051 18.1522 25.8857C17.8831 26.3663 17.4951 26.7698 17.0253 27.0575C16.5556 27.3452 16.0199 27.5075 15.4695 27.5289C14.919 27.5502 14.3724 27.43 13.8817 27.1795C13.3911 26.9291 12.973 26.557 12.6674 26.0987C12.3618 25.6404 12.1789 25.1113 12.1363 24.5621C12.0937 24.013 12.1928 23.462 12.4241 22.9621C12.6555 22.4622 13.0112 22.03 13.4574 21.707L13.5274 21.6563L13.4573 21.6057C13.0449 21.3078 12.709 20.9163 12.4774 20.4633C12.2458 20.0104 12.125 19.5089 12.125 19.0001C12.125 18.4914 12.2458 17.9899 12.4774 17.5369C12.709 17.0839 13.0448 16.6924 13.4573 16.3946L13.5274 16.3439L13.4573 16.2932C12.9061 15.8947 12.4954 15.3318 12.2841 14.6853C12.0729 14.0387 12.072 13.3419 12.2815 12.6948C12.4911 12.0477 12.9004 11.4837 13.4506 11.0838C14.0008 10.6839 14.6635 10.4686 15.3437 10.4689H15.3438L20.6562 10.4689ZM20.6561 15.7814L20.6579 15.7814C21.2127 15.7804 21.7445 15.5594 22.1366 15.1669C22.5288 14.7745 22.7494 14.2426 22.75 13.6878L22.6876 13.6877L22.75 13.6876C22.7494 13.1325 22.5286 12.6004 22.1361 12.2079C21.7436 11.8153 21.2114 11.5946 20.6563 11.5939H20.6562H18.625H18.5625V11.6564V15.7189V15.7814L18.625 15.7814L20.6532 15.7814V15.7815L20.6549 15.7814L20.6561 15.7814V15.7814ZM22.0924 15.1228C21.7119 15.5035 21.196 15.7179 20.6578 15.7189L22.6875 13.6877C22.6869 14.2259 22.4729 14.742 22.0924 15.1228ZM20.6532 16.9064H20.6531C20.0982 16.9074 19.5664 17.1286 19.1745 17.5215C18.7825 17.9144 18.5626 18.4468 18.5631 19.0017C18.5635 19.5566 18.7842 20.0887 19.1766 20.481C19.5691 20.8733 20.1013 21.0937 20.6562 21.0939L20.6562 21.0314L20.6563 21.0939C21.2112 21.0935 21.7433 20.8729 22.1356 20.4804C22.528 20.088 22.7485 19.5558 22.7487 19.0009C22.7489 18.446 22.5288 17.9137 22.1367 17.5209C21.7447 17.1282 21.2127 16.9072 20.6578 16.9064L20.6561 16.9064L20.6555 16.9064H20.6532Z" fill="#F9F4EC" stroke="#F9F4EC" stroke-width="0.125"/>
</svg>
