<svg width="37" height="37" viewBox="0 0 37 37" fill="none" xmlns="http://www.w3.org/2000/svg">
<circle cx="18.5" cy="18.5" r="17.5" stroke="#F9F4EC" stroke-width="2"/>
<path d="M21.4375 27.125C21.1061 27.1246 20.7884 26.9928 20.554 26.7585C20.3197 26.5241 20.1879 26.2064 20.1875 25.875V22.8125V22.75L21.4375 27.125ZM21.4375 27.125C21.6033 27.125 21.7622 27.1909 21.8794 27.3081C21.9967 27.4253 22.0625 27.5843 22.0625 27.75C22.0625 27.9158 21.9967 28.0747 21.8794 28.192C21.7622 28.3092 21.6033 28.375 21.4375 28.375V27.125ZM22.4375 23.9999V24V24.6249C22.4382 25.2712 22.6953 25.8908 23.1523 26.3477C23.6092 26.8047 24.2288 27.0618 24.8751 27.0625C25.0242 27.0625 25.1673 27.0032 25.2727 26.8978C25.3782 26.7923 25.4375 26.6492 25.4375 26.5C25.4375 26.3508 25.3782 26.2078 25.2727 26.1023C25.1673 25.9968 25.0242 25.9375 24.875 25.9375H24.8749C24.527 25.9371 24.1934 25.7987 23.9473 25.5527C23.7013 25.3066 23.5629 24.973 23.5625 24.6251V24.625V24C23.5623 23.5909 23.459 23.1883 23.2622 22.8296C23.0655 22.4708 22.7815 22.1673 22.4366 21.9472L22.3598 21.8982L22.4332 21.8442C22.977 21.4438 23.4191 20.9213 23.7238 20.3187C24.0286 19.7161 24.1874 19.0503 24.1875 18.375V17.7503C24.18 16.9843 23.9758 16.2331 23.5946 15.5686L23.581 15.545L23.5891 15.519C23.7778 14.911 23.8385 14.2705 23.7671 13.638C23.6958 13.0054 23.4941 12.3945 23.1747 11.8439L23.1746 11.8438C23.1253 11.7582 23.0543 11.6872 22.9688 11.6379C22.8832 11.5885 22.7862 11.5625 22.6875 11.5625L22.6874 11.5625C21.969 11.5609 21.2603 11.7274 20.6178 12.0486C19.9752 12.3698 19.4168 12.8368 18.987 13.4124L18.9682 13.4375L18.9369 13.4375L17.0631 13.4374L17.0317 13.4374L17.013 13.4123C16.5832 12.8368 16.0247 12.3697 15.3822 12.0485C14.7397 11.7274 14.031 11.5609 13.3126 11.5625L13.3125 11.5625C13.2138 11.5625 13.1168 11.5885 13.0312 11.6379C12.9457 11.6872 12.8747 11.7582 12.8254 11.8438L12.8253 11.8439C12.5059 12.3945 12.3042 13.0054 12.2329 13.638C12.1615 14.2705 12.2221 14.911 12.4108 15.519L12.4189 15.545L12.4054 15.5686C12.0241 16.2331 11.82 16.9843 11.8125 17.7503V18.375C11.8125 18.375 11.8125 18.375 11.8125 18.375C11.8126 19.0503 11.9714 19.7161 12.2762 20.3187C12.5809 20.9213 13.023 21.4438 13.5668 21.8442L13.6402 21.8982L13.5634 21.9472C13.2185 22.1673 12.9345 22.4708 12.7378 22.8296C12.541 23.1883 12.4377 23.5909 12.4375 24V24.625V24.6251C12.4371 24.973 12.2987 25.3066 12.0527 25.5527C11.8066 25.7987 11.473 25.9371 11.1251 25.9375L11.125 25.9375C10.9758 25.9375 10.8327 25.9968 10.7273 26.1023C10.6218 26.2078 10.5625 26.3508 10.5625 26.5C10.5625 26.6492 10.6218 26.7923 10.7273 26.8978C10.8327 27.0032 10.9758 27.0625 11.125 27.0625C11.7712 27.0618 12.3908 26.8047 12.8477 26.3477C13.3047 25.8908 13.5618 25.2712 13.5625 24.6249V24V23.9999C13.5629 23.652 13.7013 23.3184 13.9473 23.0724C14.1934 22.8263 14.527 22.6879 14.8749 22.6875L14.875 22.6875H15.8125H15.875V22.75V25.875V25.8751C15.8746 26.223 15.7362 26.5566 15.4902 26.8027C15.2441 27.0487 14.9105 27.1871 14.5626 27.1875L14.5625 27.1875C14.4133 27.1875 14.2702 27.2468 14.1648 27.3523C14.0593 27.4578 14 27.6008 14 27.75C14 27.8992 14.0593 28.0423 14.1648 28.1478C14.2702 28.2532 14.4133 28.3125 14.5624 28.3125C15.2087 28.3118 15.8283 28.0547 16.2852 27.5977C16.7422 27.1408 16.9993 26.5212 17 25.8749V22.75V22.6875H17.0625H18.9375H19V22.75V25.8749C19.0007 26.5212 19.2578 27.1408 19.7148 27.5977C20.1717 28.0547 20.7913 28.3118 21.4375 28.3125L22.4375 23.9999ZM22.4375 23.9999C22.4371 23.652 22.2987 23.3184 22.0527 23.0724C21.8066 22.8263 21.473 22.6879 21.1251 22.6875H21.125M22.4375 23.9999L21.125 22.6875M21.125 22.6875H20.1875H20.125M21.125 22.6875H20.125M20.125 22.6875V22.75M20.125 22.6875V22.75M20.125 22.75V25.875V25.8751M20.125 22.75V25.8751M20.125 25.8751C20.1254 26.223 20.2638 26.5566 20.5098 26.8027C20.7559 27.0487 21.0895 27.1871 21.4374 27.1875H21.4375M20.125 25.8751L21.4375 27.1875M21.4375 27.1875C21.5867 27.1875 21.7298 27.2468 21.8352 27.3523M21.4375 27.1875L21.8352 27.3523M21.8352 27.3523C21.9407 27.4578 22 27.6008 22 27.75M21.8352 27.3523L22 27.75M22 27.75C22 27.8992 21.9407 28.0423 21.8352 28.1478M22 27.75L21.8352 28.1478M21.8352 28.1478C21.7298 28.2532 21.5867 28.3125 21.4376 28.3125L21.8352 28.1478ZM11.125 25.875C11.4564 25.8746 11.7741 25.7428 12.0085 25.5085C12.2428 25.2741 12.3746 24.9564 12.375 24.625V24L11.125 25.875Z" fill="#F9F4EC" stroke="#F9F4EC" stroke-width="0.125"/>
</svg>
