<svg width="37" height="37" viewBox="0 0 37 37" fill="none" xmlns="http://www.w3.org/2000/svg">
<circle cx="18.5" cy="18.5" r="17.5" stroke="#F9F4EC" stroke-width="2"/>
<path d="M24.7913 17.3793L24.7752 17.3954L24.7732 17.4182C24.3055 22.8453 19.7284 27.0625 14.2501 27.0625C13.1212 27.0625 12.1966 26.8834 11.4986 26.5343L11.4706 26.5902L11.4985 26.5343C10.9362 26.2532 10.7097 25.9535 10.6571 25.8745L10.6571 25.8745C10.6101 25.804 10.5796 25.7238 10.568 25.6399C10.5563 25.5559 10.5638 25.4705 10.5898 25.3898C10.6158 25.3092 10.6597 25.2354 10.7182 25.1741C10.7767 25.1128 10.8483 25.0655 10.9276 25.0358L10.9277 25.0357C10.9489 25.0277 12.8047 24.3155 14.0068 22.9555L14.0528 22.9035L13.9962 22.8632C13.2607 22.3394 12.6134 21.7018 12.0786 20.9743L12.0785 20.9743C11.0164 19.5329 9.88956 17.026 10.5717 13.2744C10.59 13.1734 10.6357 13.0793 10.7037 13.0024C10.7717 12.9255 10.8594 12.8687 10.9574 12.8381C11.0554 12.8075 11.1599 12.8042 11.2596 12.8288C11.3592 12.8533 11.4503 12.9047 11.5229 12.9772L11.5229 12.9773C11.5512 13.0055 14.1621 15.5805 17.3589 16.4132L17.4371 16.4336L17.4372 16.3528L17.4376 15.8751C17.4376 15.875 17.4376 15.875 17.4376 15.8749C17.4443 14.8909 17.8414 13.9497 18.5416 13.2583C19.2419 12.567 20.188 12.1819 21.172 12.1877C21.8112 12.1966 22.4371 12.3711 22.9887 12.6942C23.5404 13.0173 23.9988 13.478 24.3192 14.0313L24.3373 14.0624L24.3733 14.0624L26.7501 14.0625C26.8614 14.0625 26.9701 14.0955 27.0626 14.1573C27.1551 14.2191 27.2272 14.3069 27.2698 14.4097C27.3124 14.5125 27.3235 14.6256 27.3018 14.7347C27.2801 14.8438 27.2265 14.9441 27.1479 15.0227L24.7913 17.3793Z" fill="#F9F4EC" stroke="#F9F4EC" stroke-width="0.125"/>
</svg>
